<?xml version="1.0" standalone="no"?>
<!DOCTYPE svg PUBLIC "-//W3C//DTD SVG 20010904//EN"
 "http://www.w3.org/TR/2001/REC-SVG-20010904/DTD/svg10.dtd">
<svg version="1.0" xmlns="http://www.w3.org/2000/svg"
 width="500.000000pt" height="500.000000pt" viewBox="0 0 500.000000 500.000000"
 preserveAspectRatio="xMidYMid meet">
<metadata>
Created by potrace 1.14, written by Peter Selinger 2001-2017
</metadata>
<g transform="translate(0.000000,500.000000) scale(0.100000,-0.100000)"
fill="#000000" stroke="none">
<path d="M2550 4808 c-11 -18 -19 -41 -16 -50 3 -13 -2 -18 -18 -18 -20 0 -90
-21 -149 -45 -10 -4 -17 -4 -15 1 2 5 -8 20 -21 33 -22 22 -27 23 -66 13 -65
-17 -173 -70 -242 -119 -35 -24 -63 -41 -63 -38 0 3 11 27 24 53 27 52 72 99
114 119 25 12 25 12 2 6 -47 -11 -88 -54 -129 -133 -23 -44 -55 -88 -71 -100
-16 -11 -32 -31 -37 -43 -5 -16 -9 0 -13 55 -3 43 -9 81 -13 85 -14 13 -41
-12 -74 -67 -25 -41 -33 -66 -33 -101 0 -47 -9 -59 -47 -59 -9 0 -22 -8 -29
-17 -10 -14 -25 -18 -75 -16 l-62 3 7 -48 c4 -26 10 -63 13 -82 5 -35 4 -35
-61 -67 -73 -36 -85 -63 -46 -98 l20 -18 -23 -26 c-23 -25 -24 -31 -21 -150 7
-214 20 -307 68 -483 25 -92 46 -169 46 -171 0 -3 -19 -8 -43 -11 -59 -9 -101
-37 -130 -88 -43 -73 -60 -150 -55 -248 3 -74 9 -98 37 -155 41 -82 96 -139
166 -171 57 -26 145 -35 200 -21 l31 8 18 -78 c21 -90 69 -188 126 -254 49
-57 171 -140 270 -183 64 -27 75 -36 78 -58 3 -26 0 -28 -155 -77 -87 -28
-171 -53 -188 -57 -16 -4 -84 -33 -150 -65 -175 -83 -275 -170 -426 -369 -92
-121 -268 -381 -322 -476 -97 -168 -287 -608 -350 -809 -14 -44 -28 -88 -32
-97 -7 -17 86 -18 1873 -18 l1881 0 -5 38 c-14 104 -50 259 -84 362 -46 141
-203 511 -272 639 -61 115 -182 301 -251 384 -51 62 -214 227 -224 227 -3 0
-24 15 -47 33 -98 79 -194 127 -366 182 -58 19 -115 42 -128 51 -31 22 -25 55
13 73 41 19 167 104 206 138 48 42 124 155 148 220 12 32 29 96 39 142 l17 85
45 12 c147 39 277 139 336 259 34 70 38 150 11 202 -28 53 -88 102 -147 120
-30 9 -57 18 -58 19 -8 5 29 145 58 223 19 52 29 99 29 129 -1 32 5 59 20 82
22 37 27 80 12 95 -12 13 9 95 24 94 28 -3 35 3 35 36 0 41 17 39 44 -6 12
-20 15 -40 11 -62 -5 -24 -4 -28 4 -17 23 32 12 72 -28 109 -45 42 -80 103
-62 109 6 2 2 11 -10 21 -21 17 -21 19 -7 62 9 26 12 52 7 64 -7 18 -8 17 -8
-7 -1 -15 -6 -39 -11 -54 l-11 -27 -20 39 c-33 62 -68 103 -111 132 -25 16
-35 28 -27 31 36 11 31 32 -20 91 -22 24 -27 36 -18 42 8 5 4 8 -11 8 -25 0
-151 70 -152 84 0 4 17 5 38 2 30 -5 33 -4 19 5 -18 11 -18 11 1 25 25 18 35
53 16 61 -20 7 -42 -13 -49 -47 -7 -34 -30 -44 -79 -34 -31 5 -35 9 -30 28 7
29 -9 41 -76 59 l-55 14 45 9 c87 18 47 48 -97 74 -70 13 -71 13 -83 52 -6 22
-13 38 -16 35 -2 -2 0 -16 6 -31 16 -43 13 -46 -42 -46 -36 0 -48 3 -39 9 12
8 13 12 1 26 -11 14 -29 15 -122 10 -62 -4 -132 -14 -164 -25 -31 -10 -51 -13
-45 -7 6 6 11 20 11 32 0 13 12 25 33 35 17 8 34 24 36 35 3 17 -1 15 -19 -7
-25 -32 -46 -38 -30 -9 5 11 10 31 10 45 0 37 -26 33 -50 -6z m30 -29 c-7 -16
-16 -29 -21 -29 -18 0 -17 18 3 51 24 39 37 24 18 -22z m810 -265 c-18 -21
-24 -10 -9 18 8 14 14 18 17 10 2 -7 -2 -19 -8 -28z m-1186 -569 c-4 -8 -10
-15 -15 -15 -5 0 -9 7 -9 15 0 8 7 15 15 15 9 0 12 -6 9 -15z m65 -71 c6 -24
16 -44 21 -44 5 0 3 18 -5 40 l-14 40 27 -14 c14 -7 45 -38 67 -67 27 -36 49
-55 66 -57 21 -2 21 -1 -6 12 -26 11 -76 66 -61 66 2 0 32 -16 66 -35 34 -19
66 -35 71 -35 16 0 10 23 -13 48 l-23 24 40 -7 c22 -4 86 -23 143 -42 57 -19
122 -36 145 -37 23 -2 57 -11 74 -20 36 -18 63 -21 63 -6 0 5 13 7 29 4 16 -4
32 -1 35 5 4 6 35 11 69 11 59 0 63 2 84 33 12 17 25 44 28 59 6 23 10 26 26
17 23 -12 24 -25 5 -61 -8 -16 -11 -28 -6 -28 4 0 14 16 22 35 l14 36 26 -21
c45 -35 71 -26 58 21 -5 16 -6 29 -3 29 3 0 26 -12 52 -26 91 -52 118 -140 86
-276 -14 -59 -15 -82 -6 -113 22 -81 6 -295 -22 -295 -5 0 -35 6 -66 14 -140
36 -334 42 -451 14 -56 -14 -149 -54 -172 -75 -16 -14 -18 -13 -24 11 -10 39
-61 79 -93 71 -24 -5 -52 -30 -69 -61 -6 -11 -25 -6 -87 21 -44 19 -114 39
-155 46 -138 21 -359 -7 -514 -65 l-69 -26 6 60 c3 39 14 76 31 104 17 29 26
59 26 86 0 31 9 55 31 89 l32 46 -11 75 c-20 131 -24 198 -17 260 7 57 9 61
42 75 39 17 57 19 49 7 -2 -4 13 -6 35 -4 22 2 45 0 52 -6 8 -7 36 -5 87 4 84
16 100 14 100 -16 0 -11 5 -20 10 -20 6 0 10 9 10 19 0 11 3 27 6 36 6 15 8
15 24 0 10 -9 23 -36 29 -61z m-697 -715 c13 -5 40 -33 61 -62 33 -45 38 -57
33 -92 -3 -22 -5 -49 -5 -60 -1 -16 -7 -14 -38 17 -21 20 -52 43 -70 52 -41
21 -101 21 -125 -1 -20 -18 -25 -78 -7 -89 8 -5 10 1 6 18 -9 34 17 68 51 68
46 0 143 -76 155 -121 6 -23 6 -23 -52 -2 -26 9 -55 14 -64 10 -38 -14 -12
-94 51 -159 29 -30 44 -38 72 -38 20 0 41 5 48 12 15 15 19 1 25 -75 3 -54 2
-58 -21 -64 -46 -11 -140 4 -186 31 -98 57 -157 158 -164 279 -8 130 28 240
87 272 31 17 110 19 143 4z m822 -20 c44 -10 95 -29 113 -41 l34 -23 -7 -70
c-6 -69 -36 -185 -71 -279 -22 -59 -40 -67 -211 -96 -187 -33 -399 -21 -436
22 -48 57 -69 129 -81 266 -7 94 -8 136 0 142 19 16 101 48 179 70 146 41 335
45 480 9z m260 15 c9 -8 19 -27 22 -42 4 -15 10 -31 14 -37 4 -5 10 -48 13
-95 5 -72 34 -198 63 -275 7 -18 6 -18 -9 -7 -9 8 -21 11 -28 7 -8 -6 -8 -10
2 -16 11 -6 11 -12 -1 -33 -7 -14 -10 -29 -6 -33 11 -12 40 12 46 38 5 20 7
21 12 7 10 -24 95 -65 186 -90 61 -17 108 -21 225 -22 101 0 147 -4 147 -12 0
-6 -9 -45 -19 -87 -58 -226 -199 -352 -529 -473 -109 -40 -118 -40 -247 -13
-419 89 -618 196 -707 381 -32 66 -85 245 -75 255 2 2 17 -1 33 -7 53 -20 164
-40 262 -46 126 -8 259 14 362 61 86 39 93 50 136 215 19 74 24 117 23 193 -1
90 0 100 22 123 26 28 32 29 53 8z m709 -19 c58 -18 59 -19 53 -49 -13 -64
-35 -225 -47 -339 -11 -111 -13 -119 -36 -128 -54 -20 -247 -7 -388 27 -111
27 -107 24 -143 137 -42 132 -54 194 -50 253 3 47 5 50 48 71 92 45 143 53
330 49 131 -3 190 -8 233 -21z m318 -21 c81 -56 102 -159 53 -256 -41 -81
-199 -231 -169 -160 44 102 55 148 55 227 0 47 2 85 5 85 3 0 17 -7 30 -16 15
-10 25 -12 25 -5 0 6 -12 18 -27 28 -16 9 -30 18 -32 20 -2 1 -4 13 -5 25 -1
16 -14 30 -44 47 -33 18 -41 26 -30 33 24 16 97 2 139 -28z m-128 -54 l37 -22
-46 -46 c-25 -26 -57 -71 -71 -100 -24 -48 -25 -55 -10 -69 14 -14 18 -12 41
25 28 45 66 73 66 49 0 -29 -23 -83 -42 -99 -11 -10 -36 -18 -55 -18 -47 0
-38 -24 10 -28 20 -2 37 -6 37 -10 0 -4 -10 -25 -23 -47 -18 -32 -29 -41 -55
-43 -38 -4 -36 -21 -21 208 6 95 17 179 25 199 12 29 17 33 43 28 15 -3 44
-16 64 -27z m27 -103 c0 -16 -9 -28 -26 -36 -37 -16 -39 -9 -9 28 32 37 35 38
35 8z m-1980 -112 c27 -14 56 -25 64 -25 8 0 17 -14 21 -32 6 -24 3 -35 -11
-45 -10 -7 -22 -13 -28 -13 -18 0 -106 100 -106 120 0 25 1 25 60 -5z m810
-901 c63 -14 165 -28 225 -30 97 -5 120 -3 193 19 l82 25 0 -54 c0 -45 4 -56
23 -69 13 -8 34 -14 47 -13 21 3 23 -1 26 -51 3 -51 -1 -60 -50 -135 -29 -45
-63 -99 -76 -121 -32 -55 -66 -91 -122 -127 -44 -28 -54 -30 -116 -26 -82 5
-162 39 -218 94 -104 103 -223 262 -205 273 23 15 41 88 41 168 0 77 2 84 18
78 9 -4 69 -18 132 -31z"/>
<path d="M3287 3793 c-4 -3 -7 -11 -7 -17 0 -6 5 -5 12 2 6 6 9 14 7 17 -3 3
-9 2 -12 -2z"/>
<path d="M2103 3459 c-57 -11 -97 -42 -144 -113 -83 -125 -63 -161 67 -115
108 37 258 69 329 69 46 1 77 6 89 15 25 19 45 19 67 -1 29 -26 29 -1 0 31
-34 38 -68 66 -57 46 10 -16 10 -16 -71 27 -38 19 -89 36 -130 42 -78 11 -92
11 -150 -1z"/>
<path d="M3055 3414 c-22 -8 -57 -28 -77 -44 -20 -17 -39 -30 -42 -30 -14 0
-4 23 19 45 15 16 19 25 10 25 -19 0 -62 -55 -70 -90 -7 -33 1 -53 18 -47 7 2
19 1 28 -4 19 -10 308 -55 397 -62 48 -4 65 -2 69 9 13 35 -90 145 -179 190
-54 27 -112 30 -173 8z"/>
<path d="M2867 3353 c-11 -10 -8 -63 3 -63 6 0 10 16 10 35 0 36 -2 40 -13 28z"/>
<path d="M2103 3099 c-73 -28 -150 -110 -152 -161 -1 -30 13 -20 32 21 10 22
29 47 43 56 l26 17 -7 -42 c-9 -52 29 -136 74 -163 66 -39 184 -15 217 45 16
28 18 122 4 149 -23 43 34 15 103 -50 l37 -35 0 26 c0 48 -84 112 -189 142
-71 21 -124 19 -188 -5z"/>
<path d="M2100 2793 c44 -21 192 -21 242 1 l33 15 -34 -6 c-51 -9 -211 -9
-246 0 -28 7 -28 6 5 -10z"/>
<path d="M2630 2650 c0 -14 7 -20 21 -20 17 0 19 3 10 13 -6 8 -8 17 -4 20 3
4 -1 7 -10 7 -10 0 -17 -8 -17 -20z"/>
<path d="M2516 2433 c-15 -15 -5 -43 16 -43 12 0 48 -5 80 -12 56 -12 98 -8
186 18 16 5 22 2 22 -10 0 -20 19 -21 26 -2 9 24 -15 59 -34 50 -83 -35 -245
-40 -276 -8 -8 7 -16 10 -20 7z"/>
<path d="M2984 3082 c-58 -20 -154 -79 -154 -94 0 -6 11 -8 24 -6 22 4 24 1
28 -44 3 -27 14 -62 25 -76 45 -63 151 -82 214 -39 55 37 73 144 33 202 -22
31 -17 35 33 20 29 -9 63 -30 90 -57 25 -24 43 -36 43 -28 0 28 -39 79 -81
107 -36 24 -54 28 -123 31 -58 2 -95 -3 -132 -16z"/>
<path d="M3190 2803 c-27 -8 -84 -14 -140 -14 -64 0 -90 -3 -80 -9 39 -25 266
0 285 31 8 12 -11 10 -65 -8z"/>
<path d="M1547 4573 c-13 -13 -7 -25 7 -14 21 17 56 -32 56 -78 l1 -36 15 28
16 29 26 -24 27 -23 -24 27 c-13 15 -29 24 -36 22 -7 -3 -18 8 -25 26 -15 37
-48 59 -63 43z"/>
<path d="M3548 4383 c20 -4 22 -10 22 -68 0 -57 3 -66 26 -84 29 -22 59 -27
69 -11 4 6 -8 10 -29 10 -43 0 -48 8 -55 90 -6 61 -8 65 -31 66 -22 1 -22 0
-2 -3z"/>
<path d="M1433 4223 c9 -2 25 -2 35 0 9 3 1 5 -18 5 -19 0 -27 -2 -17 -5z"/>
<path d="M1381 4211 c-7 -5 -9 -11 -5 -14 5 -3 15 1 22 9 14 16 5 18 -17 5z"/>
<path d="M1282 3890 c0 -14 2 -19 5 -12 2 6 2 18 0 25 -3 6 -5 1 -5 -13z"/>
<path d="M1333 3795 c-3 -9 -3 -18 -1 -21 3 -3 8 4 11 16 6 23 -1 27 -10 5z"/>
<path d="M1330 3736 c0 -8 4 -17 9 -20 5 -4 7 3 4 14 -6 23 -13 26 -13 6z"/>
<path d="M1356 3687 c3 -10 9 -15 12 -12 3 3 0 11 -7 18 -10 9 -11 8 -5 -6z"/>
<path d="M1371 3644 c0 -11 3 -14 6 -6 3 7 2 16 -1 19 -3 4 -6 -2 -5 -13z"/>
<path d="M1380 3576 c0 -19 3 -37 8 -40 4 -2 6 13 4 35 -5 48 -12 51 -12 5z"/>
<path d="M4091 1095 c1 -19 18 -51 18 -35 0 8 -4 22 -9 30 -5 8 -9 11 -9 5z"/>
<path d="M4111 1024 c0 -11 3 -14 6 -6 3 7 2 16 -1 19 -3 4 -6 -2 -5 -13z"/>
<path d="M4121 990 c0 -8 4 -24 9 -35 5 -13 9 -14 9 -5 0 8 -4 24 -9 35 -5 13
-9 14 -9 5z"/>
<path d="M4141 914 c0 -11 3 -14 6 -6 3 7 2 16 -1 19 -3 4 -6 -2 -5 -13z"/>
<path d="M4156 860 c4 -19 11 -44 15 -55 6 -14 7 -9 3 15 -4 19 -11 44 -15 55
-6 14 -7 9 -3 -15z"/>
<path d="M4181 770 c-2 -42 208 -770 221 -770 8 0 -1 33 -73 265 -27 88 -71
241 -98 340 -28 99 -50 173 -50 165z"/>
</g>
</svg>
